<svg width="70" height="70" viewBox="0 0 70 70" fill="none" xmlns="http://www.w3.org/2000/svg">
<path d="M69.9802 25.3771C69.9257 25.5408 69.8711 25.7227 69.8165 25.8865C69.1982 28.1058 67.325 29.5975 65.0153 29.6339C62.8329 29.6702 60.6505 29.6339 58.4681 29.6521C58.2317 29.6521 57.9771 29.6521 57.6861 29.6521C57.6679 29.9249 57.6497 30.125 57.6497 30.3251C57.6497 32.5081 57.6497 34.691 57.6497 36.874C57.6497 38.02 57.9771 39.0569 58.6136 40.0211C59.7048 41.6947 60.7596 43.3865 61.8145 45.0783C61.9418 45.2602 62.0327 45.4785 62.1055 45.6968C62.3237 46.2607 62.1418 46.7882 61.6508 47.0247C61.1598 47.2612 60.6323 47.0793 60.305 46.5517C59.141 44.678 57.9953 42.8043 56.8314 40.9488C56.0493 39.73 55.631 38.4202 55.6492 36.9649C55.6492 34.8002 55.6492 32.6536 55.6492 30.4889C55.6492 30.2524 55.6492 29.9977 55.6492 29.7066C48.9202 29.7066 42.2458 29.7066 35.5349 29.7066C35.5349 30.1978 35.5349 30.689 35.5349 31.2711C35.7713 31.2711 36.0078 31.2711 36.2442 31.2711C37.7719 31.2711 39.2813 31.2711 40.809 31.2711C42.173 31.2893 42.8641 31.9805 42.8641 33.3449C42.8641 35.3277 42.8641 37.2924 42.8641 39.2934C43.1187 39.348 43.3006 39.4026 43.5006 39.439C44.8464 39.7482 45.8285 40.5122 46.265 41.822C47.0106 44.1323 48.1746 46.1879 49.5749 48.1162C50.8844 49.9171 51.9756 51.7726 51.7937 54.1375C55.1582 54.1375 58.4318 54.1375 61.869 54.1375C61.7781 53.0278 61.7054 51.9546 61.6144 50.8813C61.6144 50.7903 61.578 50.6994 61.5599 50.6084C61.4507 49.8626 61.7417 49.3532 62.3419 49.2441C62.9602 49.1349 63.4513 49.4987 63.5422 50.2446C63.6695 51.2815 63.7422 52.3184 63.8332 53.3553C63.8514 53.61 63.8332 53.8464 63.8332 54.1193C64.0332 54.1739 64.2151 54.2466 64.3788 54.283C65.961 54.7378 67.0522 56.084 67.0886 57.7212C67.1249 59.2856 67.1249 60.8501 67.0886 62.4327C67.0704 63.8153 66.0701 64.7794 64.6879 64.7976C62.3419 64.8158 60.014 64.8158 57.6679 64.7976C56.9223 64.7976 56.4676 64.3974 56.4676 63.7971C56.4676 63.1786 56.9041 62.7965 57.6679 62.7965C59.7958 62.7784 61.9418 62.7965 64.0696 62.7965C65.0517 62.7965 65.0517 62.7965 65.0517 61.7778C65.0517 60.559 65.0517 59.322 65.0517 58.1032C65.0517 56.8298 64.4333 56.1931 63.1785 56.1931C57.086 56.1931 50.9935 56.1931 44.901 56.1931C43.2096 56.1931 41.8638 56.8662 40.8636 58.2123C39.7724 59.6858 38.6994 61.1775 37.4991 62.7965C37.8992 62.7965 38.1538 62.7965 38.4084 62.7965C43.0278 62.7965 47.629 62.7965 52.2484 62.7965C52.4666 62.7965 52.703 62.7784 52.9212 62.8147C53.485 62.9057 53.8306 63.2513 53.8124 63.8334C53.7942 64.4156 53.4305 64.7248 52.8485 64.7976C52.6848 64.8158 52.5393 64.7976 52.3757 64.7976C47.5744 64.7976 42.7913 64.7976 37.9901 64.7976C37.0262 64.7976 36.226 64.5611 35.7713 63.6515C35.3167 62.742 35.5713 61.9597 36.1533 61.1775C37.1717 59.8314 38.1356 58.467 39.1359 57.1027C40.5726 55.138 42.5186 54.1375 44.9737 54.1193C46.5378 54.1193 48.1018 54.1193 49.7204 54.1193C49.8295 52.9005 49.5931 51.8272 48.9566 50.8449C48.3382 49.8626 47.6835 48.9166 47.0288 47.9525C45.9376 46.3516 45.0465 44.6417 44.4645 42.7862C44.1735 41.8584 43.5734 41.349 42.5913 41.2945C41.6274 41.2399 41.0636 40.6578 40.809 39.7118C39.8269 39.7118 38.8449 39.73 37.881 39.7118C36.4079 39.6936 35.735 38.7295 36.2442 37.347C36.6625 36.1827 36.7716 35.0003 36.4988 33.7997C36.4261 33.4177 36.2624 33.2539 35.8259 33.2539C33.9891 33.2357 33.4435 32.6536 33.4435 30.8345C33.4435 30.7072 33.4253 30.5616 33.4435 30.4343C33.5708 29.5065 33.3889 28.7425 32.5159 28.1786C32.0977 27.9057 31.7885 27.36 31.5702 26.8688C31.352 26.414 31.0792 26.3231 30.6427 26.3231C26.0597 26.3412 21.4585 26.3231 16.8755 26.3412C15.7116 26.3412 14.6931 26.032 13.8202 25.2316C13.1473 24.6131 12.2561 24.1219 11.8742 23.3761C11.4014 22.4665 10.8921 22.2846 9.96464 22.2846C8.63702 22.2846 7.76406 21.3205 7.70951 19.9561C7.69132 19.4649 7.70951 18.9556 7.70951 18.3917C7.40033 18.3735 7.16391 18.3553 6.92748 18.3553C5.09064 18.3553 3.2538 18.3553 1.39877 18.3553C0.798619 18.3553 0.307582 18.1916 0.143903 17.5367C-0.0197754 16.8818 0.489448 16.3542 1.27147 16.3542C3.1265 16.3361 4.99971 16.3542 6.85474 16.3542C7.10935 16.3542 7.34577 16.3542 7.63676 16.3542C7.81862 15.2628 7.43671 14.1167 8.2551 13.189C9.09168 12.2248 10.2192 12.4249 11.3286 12.3885C11.7833 10.6058 13.3291 9.80539 14.675 8.89582C15.2569 8.51381 16.0935 8.40466 16.821 8.40466C21.404 8.36827 26.0052 8.36827 30.5882 8.38647C31.0792 8.38647 31.3338 8.24094 31.5702 7.80435C32.4978 6.05798 33.9709 5.07566 35.9532 5.07566C45.6103 5.05746 55.2673 5.05746 64.9426 5.07566C67.2886 5.07566 69.2164 6.6401 69.7984 8.9322C69.8347 9.05954 69.8893 9.18688 69.9439 9.31422C69.9802 14.6443 69.9802 20.0107 69.9802 25.3771ZM42.8641 27.6692C43.2642 27.6692 43.5188 27.6692 43.7916 27.6692C50.6297 27.6692 57.4679 27.6692 64.306 27.6692C64.7061 27.6692 65.1244 27.651 65.5245 27.5783C66.6339 27.36 67.5069 26.7051 67.7615 25.6136C67.9979 24.6131 67.9433 23.5216 68.0161 22.4119C67.5614 22.4119 67.3068 22.4119 67.034 22.4119C66.743 22.4119 66.4339 22.4301 66.1429 22.4119C65.47 22.3756 65.0699 22.0117 65.0517 21.4296C65.0517 20.8293 65.47 20.4473 66.1792 20.4291C66.743 20.4109 67.3068 20.4291 67.907 20.4291C67.907 19.7014 67.907 19.0647 67.907 18.3371C67.3068 18.3371 66.743 18.3553 66.1792 18.3371C65.4518 18.3007 65.0517 17.9187 65.0517 17.3184C65.0517 16.7181 65.4882 16.3542 66.1974 16.3361C66.7612 16.3179 67.325 16.3361 67.8888 16.3361C67.8888 15.6084 67.8888 14.9535 67.8888 14.2622C67.5796 14.2622 67.3068 14.2622 67.034 14.2622C66.7612 14.2622 66.4884 14.2622 66.2156 14.2622C65.4518 14.2259 65.0335 13.8438 65.0517 13.2253C65.0699 12.6432 65.5063 12.2794 66.2156 12.2612C66.7794 12.243 67.3432 12.2612 67.9433 12.2612C67.9433 11.6063 67.9433 11.0242 67.9433 10.4603C67.9433 8.20455 66.7976 7.04031 64.5606 7.04031C57.577 7.04031 50.6116 7.04031 43.6279 7.04031C43.3915 7.04031 43.1369 7.0585 42.8459 7.07669C42.8459 7.38595 42.8459 7.62243 42.8459 7.87711C42.8459 11.2243 42.8459 14.5533 42.8459 17.9005C42.8459 18.1188 42.8641 18.3553 42.8277 18.5736C42.7732 19.1193 42.4276 19.4468 41.882 19.4649C41.3001 19.4831 40.9545 19.1557 40.8636 18.5736C40.8272 18.3553 40.8454 18.1188 40.8454 17.9005C40.8454 14.5533 40.8454 11.2243 40.8454 7.87711C40.8454 7.62243 40.8454 7.34956 40.8454 7.04031C39.2268 7.04031 37.6991 7.02212 36.1714 7.04031C34.2619 7.0585 33.0434 8.29551 33.007 10.2238C32.9888 10.9696 33.007 11.7155 33.007 12.4795C33.007 16.4634 33.007 20.4291 33.007 24.413C33.007 26.0138 33.9163 27.3781 35.3349 27.5055C37.1353 27.6692 38.954 27.5419 40.8454 27.5419C40.8454 27.2144 40.8454 26.887 40.8454 26.5595C40.8454 25.4317 40.8272 24.2856 40.8636 23.1578C40.8818 22.5211 41.3182 22.1027 41.882 22.1209C42.4276 22.1391 42.8095 22.5575 42.8277 23.1578C42.8459 23.4125 42.8277 23.6489 42.8277 23.9036C42.8641 25.1224 42.8641 26.3412 42.8641 27.6692ZM20.6401 10.4057C20.6401 15.0627 20.6401 19.6651 20.6401 24.2674C24.1138 24.2674 27.551 24.2674 31.0247 24.2674C31.0247 19.6287 31.0247 15.0263 31.0247 10.4057C27.551 10.4057 24.132 10.4057 20.6401 10.4057ZM18.5487 10.4603C16.8755 10.151 15.4388 10.4057 14.3112 11.6609C14.2385 11.7519 14.1475 11.8064 14.0384 11.8792C13.5292 12.2066 13.3655 12.6614 13.3655 13.2617C13.3837 15.9358 13.4019 18.6281 13.3655 21.3023C13.3473 22.0117 13.5838 22.5211 14.1657 22.9031C14.3658 23.0304 14.584 23.1942 14.7477 23.3761C15.8207 24.5767 17.1847 24.3038 18.5487 24.2493C18.5487 19.6287 18.5487 15.0445 18.5487 10.4603ZM40.8454 37.729C40.8454 36.2009 40.8454 34.7638 40.8454 33.3267C40.0452 33.3267 39.2813 33.3267 38.5357 33.3267C38.5357 34.8184 38.5357 36.2555 38.5357 37.729C39.2086 37.729 39.9906 37.729 40.8454 37.729ZM11.3286 14.3896C11.074 14.3896 10.8558 14.3896 10.6375 14.3896C9.7464 14.3896 9.72821 14.4078 9.72821 15.2991C9.72821 16.518 9.72821 17.7368 9.72821 18.9738C9.72821 20.4109 9.72821 20.4109 11.1468 20.3199C11.2013 20.3199 11.2741 20.2654 11.3468 20.2472C11.3286 18.3007 11.3286 16.3906 11.3286 14.3896Z" fill="#E84E0E"/>
<path d="M46.104 61.05C45.3402 61.0318 44.74 60.4133 44.7582 59.6493C44.7764 58.9216 45.3947 58.3031 46.104 58.3031C46.8497 58.2849 47.4862 58.9216 47.4862 59.6857C47.5044 60.4497 46.886 61.05 46.104 61.05Z" fill="#E84E0E"/>
<path d="M52.2696 59.6489C52.2878 60.4311 51.6876 61.0314 50.9056 61.0314C50.1418 61.0314 49.5234 60.4129 49.5234 59.6489C49.5234 58.9213 50.1236 58.3028 50.8511 58.2846C51.6149 58.2664 52.2696 58.9031 52.2696 59.6489Z" fill="#E84E0E"/>
<path d="M49.7772 16.0993C49.1406 16.0993 48.5041 16.1175 47.8676 16.0993C46.2308 16.0447 44.9395 14.7349 44.9032 13.1341C44.8668 11.5515 46.0489 10.1689 47.6857 10.078C49.1043 9.98703 50.541 9.98703 51.9777 10.078C53.6327 10.1871 54.7785 11.5697 54.7239 13.2069C54.6693 14.7713 53.3781 16.0447 51.7595 16.0993C51.1048 16.1175 50.4319 16.0993 49.7772 16.0993ZM49.8681 14.0619C50.4137 14.0619 50.9593 14.0619 51.5049 14.0619C51.5413 14.0619 51.5958 14.0619 51.6322 14.0619C52.2869 14.0255 52.687 13.6617 52.687 13.0614C52.7052 12.4792 52.3051 12.0244 51.6686 12.0244C50.4501 11.9881 49.2134 11.9881 47.9949 12.0244C47.322 12.0426 46.9037 12.4974 46.9219 13.0977C46.9401 13.6617 47.3583 14.0437 48.0131 14.0619C48.6496 14.0801 49.2497 14.0619 49.8681 14.0619Z" fill="#E84E0E"/>
<path d="M58.4878 10.187C60.1246 10.2052 61.4159 11.4968 61.4159 13.134C61.4159 14.7712 60.1064 16.081 58.4878 16.081C56.8511 16.081 55.5234 14.7348 55.5234 13.0794C55.5416 11.4604 56.8511 10.187 58.4878 10.187ZM58.4515 12.1881C57.9422 12.2062 57.524 12.6428 57.5421 13.1704C57.5603 13.7161 57.9786 14.0981 58.5242 14.0618C59.088 14.0254 59.379 13.6797 59.3972 13.134C59.4154 12.6065 58.9607 12.1699 58.4515 12.1881Z" fill="#E84E0E"/>
<path d="M25.7699 14.2803C24.9333 14.2803 24.0967 14.2985 23.2419 14.2803C22.4963 14.2621 22.0234 13.8801 22.0234 13.2798C22.0234 12.6795 22.4781 12.2793 23.2238 12.2793C24.9333 12.2793 26.6246 12.2793 28.3342 12.2793C29.0798 12.2793 29.4799 12.6249 29.4981 13.2252C29.5163 13.8619 29.098 14.2621 28.3524 14.2803C27.4976 14.2985 26.6246 14.2803 25.7699 14.2803Z" fill="#E84E0E"/>
<path d="M25.8084 16.3538C26.6631 16.3538 27.5361 16.3356 28.3908 16.3538C29.0819 16.372 29.4638 16.7176 29.5002 17.2997C29.5184 17.9182 29.1365 18.3366 28.4272 18.3366C26.6631 18.3548 24.8808 18.3548 23.1167 18.3366C22.4257 18.3184 21.9892 17.8637 22.0255 17.2815C22.0619 16.7176 22.4802 16.3538 23.1531 16.3538C24.0443 16.3538 24.9172 16.3538 25.8084 16.3538Z" fill="#E84E0E"/>
<path d="M25.7691 20.447C26.6602 20.447 27.5332 20.4289 28.4243 20.447C29.0972 20.4652 29.4973 20.8291 29.4973 21.4112C29.4973 22.0115 29.1336 22.3935 28.4425 22.4117C26.642 22.4299 24.8597 22.4299 23.0593 22.4117C22.4227 22.4117 21.9863 21.9569 22.0045 21.4112C22.0226 20.8473 22.4409 20.4652 23.0956 20.447C24.005 20.4289 24.8961 20.447 25.7691 20.447Z" fill="#E84E0E"/>
</svg>
