<svg width="70" height="70" viewBox="0 0 70 70" fill="none" xmlns="http://www.w3.org/2000/svg">
<path d="M33.8359 69.9999C33.0019 69.7811 32.168 69.6171 31.3477 69.3436C29.666 68.7831 29.2148 68.1268 29.2148 66.3905C29.2148 66.0761 29.2148 65.7616 29.2148 65.3515C28.9004 65.3515 28.6406 65.3515 28.3809 65.3515C22.5566 65.3515 16.7324 65.3515 10.9082 65.3515C5.98633 65.3515 2.44531 61.8104 2.44531 56.8886C2.44531 42.328 2.44531 27.7811 2.44531 13.2206C2.44531 8.32606 5.97266 4.79872 10.8809 4.78505C13.4102 4.77138 15.9258 4.77138 18.4551 4.78505C23.3633 4.79872 26.8906 8.32606 26.8906 13.2069C26.8906 20.5761 26.8906 27.9452 26.8906 35.3143C26.8906 35.5878 26.8906 35.8612 26.8906 36.1757C27.6699 36.1757 28.4082 36.1757 29.2148 36.1757C29.2148 35.8612 29.2148 35.5741 29.2148 35.287C29.2148 24.7733 29.2148 14.2733 29.2148 3.75966C29.2148 1.98232 29.666 1.33974 31.375 0.751848C33.9453 -0.136824 36.5019 -0.0958135 39.0449 0.87489C40.3848 1.38075 40.8496 2.09168 40.8769 3.51356C40.8769 3.89637 40.8769 4.27919 40.8769 4.77137C41.1777 4.77137 41.4375 4.77137 41.6973 4.77137C47.5898 4.77137 53.4824 4.7577 59.375 4.77137C63.3672 4.78505 66.5527 7.31434 67.4551 11.1972C67.6055 11.8261 67.6601 12.496 67.6601 13.1522C67.6738 27.7538 67.6738 42.3554 67.6601 56.9569C67.6601 61.7831 64.0644 65.3378 59.2383 65.3378C56.668 65.3378 54.0977 65.3378 51.5273 65.3378C46.8105 65.3378 43.2285 61.7831 43.2148 57.0663C43.2012 49.6561 43.2148 42.2323 43.2148 34.8222C43.2148 34.5487 43.2148 34.2753 43.2148 33.9472C42.4355 33.9472 41.6973 33.9472 40.8769 33.9472C40.8769 34.2479 40.8769 34.535 40.8769 34.8358C40.8769 45.2948 40.8769 55.7538 40.8769 66.2265C40.8769 68.1815 40.3984 68.8651 38.5254 69.4394C37.7871 69.6581 37.0352 69.8085 36.2969 69.9999C35.4766 69.9999 34.6562 69.9999 33.8359 69.9999ZM29.1875 38.5682C28.5449 38.5682 27.9707 38.5682 27.4102 38.5682C25.4414 38.5682 24.5664 37.7069 24.5664 35.7518C24.5664 28.2323 24.5664 20.6991 24.5664 13.1796C24.5664 9.62489 22.0645 7.12294 18.5098 7.12294C15.9805 7.12294 13.4648 7.12294 10.9355 7.12294C7.25781 7.12294 4.76953 9.61122 4.76953 13.2753C4.76953 27.8085 4.76953 42.328 4.76953 56.8612C4.76953 60.539 7.25781 63.0272 10.9219 63.0272C16.7598 63.0272 22.6113 63.0272 28.4492 63.0272C28.6953 63.0272 28.9277 63.0272 29.1738 63.0272C29.1875 54.8241 29.1875 46.744 29.1875 38.5682ZM40.918 31.5546C41.5195 31.5546 42.0527 31.5546 42.5996 31.5546C44.7051 31.5546 45.5391 32.3886 45.5391 34.4804C45.5391 41.9315 45.5391 49.3964 45.5391 56.8475C45.5391 60.5526 48 63.0136 51.6914 63.0136C54.1934 63.0136 56.6953 63.0136 59.1973 63.0136C62.8203 63.0136 65.3359 60.5116 65.3359 56.8886C65.3359 42.3417 65.3359 27.7811 65.3359 13.2343C65.3359 9.59755 62.834 7.09559 59.2109 7.09559C53.373 7.09559 47.5215 7.09559 41.6836 7.09559C41.4375 7.09559 41.1914 7.09559 40.918 7.09559C40.918 15.2714 40.918 23.3651 40.918 31.5546ZM38.5117 31.5272C38.5117 23.3651 38.5117 15.2714 38.5117 7.16395C36.1738 7.16395 33.8769 7.16395 31.5937 7.16395C31.5937 15.3124 31.5937 23.4198 31.5937 31.5272C33.918 31.5272 36.1738 31.5272 38.5117 31.5272ZM31.5937 38.6093C31.5937 46.744 31.5937 54.8515 31.5937 62.9725C33.918 62.9725 36.2012 62.9725 38.4844 62.9725C38.4844 54.8241 38.4844 46.7167 38.4844 38.6093C36.1602 38.6093 33.8906 38.6093 31.5937 38.6093ZM31.5527 36.1893C33.8906 36.1893 36.1738 36.1893 38.4707 36.1893C38.4707 35.41 38.4707 34.6854 38.4707 33.9472C36.1328 33.9472 33.8496 33.9472 31.5527 33.9472C31.5527 34.6991 31.5527 35.3964 31.5527 36.1893ZM31.5664 4.73036C33.9043 4.73036 36.2012 4.73036 38.5254 4.73036C38.5391 4.49794 38.5254 4.32021 38.5527 4.14247C38.6894 3.39052 38.3477 3.06239 37.6367 2.85731C36.0918 2.43348 34.5605 2.28309 33.0156 2.72059C31.1836 3.21278 31.5391 2.92567 31.5664 4.73036ZM38.4434 65.3788C36.1875 65.3788 33.9043 65.3788 31.5937 65.3788C31.5801 65.5839 31.5937 65.7616 31.5527 65.9393C31.4023 66.7186 31.7578 67.0604 32.4961 67.2655C34.0547 67.703 35.6269 67.8397 37.1855 67.3886C38.8125 66.9237 38.5254 67.2245 38.5117 65.5292C38.498 65.5018 38.4707 65.4608 38.4434 65.3788Z" fill="#E84E0E"/>
<path d="M18.7305 13.5079C18.7442 15.7637 16.9259 17.5958 14.6837 17.5958C12.4415 17.5958 10.6095 15.7911 10.6095 13.5352C10.5958 11.2794 12.4141 9.44734 14.6563 9.43367C16.8985 9.42 18.7305 11.252 18.7305 13.5079ZM16.4063 13.5216C16.4063 12.5645 15.6544 11.7852 14.6973 11.7716C13.754 11.7579 12.961 12.5235 12.9473 13.4805C12.9337 14.4649 13.713 15.2716 14.6837 15.2579C15.6407 15.2579 16.3927 14.4786 16.4063 13.5216Z" fill="#E84E0E"/>
<path d="M10.6095 56.5604C10.6368 54.3045 12.4688 52.5135 14.7247 52.5408C16.9669 52.5682 18.7579 54.4139 18.7305 56.6698C18.7032 58.9256 16.8575 60.7303 14.6153 60.703C12.3731 60.6483 10.5958 58.8162 10.6095 56.5604ZM16.3927 56.6287C16.4063 55.6717 15.6544 54.8787 14.711 54.8651C13.7677 54.8377 12.961 55.6033 12.9473 56.5467C12.92 57.5447 13.6856 58.3514 14.67 58.3514C15.6134 58.3651 16.3927 57.5994 16.3927 56.6287Z" fill="#E84E0E"/>
<path d="M15.2559 34.4941C15.2559 36.7227 13.3965 38.5684 11.168 38.5684C8.92578 38.5547 7.09375 36.709 7.09375 34.4805C7.09375 32.2383 8.92578 30.4199 11.1816 30.4199C13.4375 30.4199 15.2695 32.252 15.2559 34.4941ZM11.1543 36.2168C12.1113 36.2305 12.8906 35.4648 12.918 34.5215C12.9453 33.5918 12.166 32.7715 11.2227 32.7441C10.252 32.7168 9.41797 33.5098 9.41797 34.4805C9.43164 35.4101 10.2109 36.2031 11.1543 36.2168Z" fill="#E84E0E"/>
<path d="M58.9121 39.7169C56.6562 39.7032 54.8516 37.8848 54.8516 35.629C54.8516 33.3868 56.7109 31.5548 58.9395 31.5684C61.1816 31.5821 63.0137 33.4415 63 35.67C63 37.9122 61.168 39.7169 58.9121 39.7169ZM58.8984 33.9063C57.9551 33.92 57.1758 34.713 57.1758 35.6563C57.1895 36.627 57.9961 37.42 58.9805 37.379C59.9238 37.3516 60.6895 36.545 60.6621 35.6016C60.6484 34.6583 59.8555 33.8927 58.8984 33.9063Z" fill="#E84E0E"/>
<path d="M59.5003 13.5491C59.4866 15.7913 57.6409 17.6097 55.3987 17.5823C53.1702 17.5687 51.3245 15.6956 51.3519 13.4671C51.3792 11.2249 53.2386 9.39288 55.4671 9.42022C57.723 9.46124 59.514 11.2933 59.5003 13.5491ZM57.1761 13.4944C57.1624 12.5511 56.3694 11.7718 55.4261 11.7718C54.4827 11.7718 53.7034 12.5648 53.7034 13.5081C53.7034 14.4788 54.5101 15.2855 55.4808 15.2581C56.4241 15.2308 57.1898 14.4378 57.1761 13.4944Z" fill="#E84E0E"/>
<path d="M59.502 56.6148C59.502 58.8707 57.6699 60.7027 55.4414 60.7027C53.2129 60.7027 51.3672 58.8433 51.3672 56.6148C51.3672 54.3726 53.2129 52.5406 55.4414 52.5406C57.6836 52.5269 59.502 54.359 59.502 56.6148ZM57.1777 56.6285C57.1914 55.6851 56.4258 54.8922 55.4824 54.8648C54.5254 54.8375 53.7051 55.6441 53.7051 56.6285C53.7051 57.5855 54.4844 58.3648 55.4414 58.3648C56.3711 58.3648 57.1641 57.5719 57.1777 56.6285Z" fill="#E84E0E"/>
</svg>
