<svg width="70" height="70" viewBox="0 0 70 70" fill="none" xmlns="http://www.w3.org/2000/svg">
<path d="M70.0008 46.2047C69.1638 48.8486 66.9985 48.7209 64.7421 48.6115C64.9241 49.742 65.1061 50.7814 65.2698 51.8207C65.4336 52.7689 65.6156 53.6988 65.7611 54.647C65.8885 55.4857 65.6156 55.978 64.9969 56.0874C64.3418 56.2151 63.8869 55.814 63.7414 54.9752C63.4138 53.0606 63.0681 51.1643 62.777 49.2497C62.7042 48.7756 62.5404 48.6115 62.0491 48.6115C60.3933 48.648 58.7375 48.6298 56.9907 48.6298C57.5729 50.4167 58.1188 52.1307 58.6647 53.8264C59.8838 57.6373 61.1211 61.4482 62.3403 65.2591C62.5222 65.8061 62.777 66.0614 63.3593 66.0067C63.7596 65.9702 64.1781 66.0067 64.5784 66.0067C65.5064 66.0067 65.6338 65.8791 65.4882 64.9856C65.2516 63.5634 64.9969 62.1593 64.7603 60.7553C64.7058 60.4818 64.6512 60.2083 64.633 59.953C64.5966 59.3695 64.9605 58.8772 65.4882 58.8225C66.0523 58.7678 66.489 59.0413 66.5981 59.6066C66.8529 60.8283 67.053 62.0682 67.2532 63.3081C67.3624 63.928 67.4897 64.5662 67.5625 65.2044C67.7445 66.809 66.6527 68.0489 65.0151 68.0854C64.3782 68.1036 63.7414 68.0854 63.1045 68.0854C61.7398 68.0671 60.8846 67.4472 60.4479 66.1525C59.7564 64.0192 59.0468 61.8676 58.3917 59.716C58.228 59.2055 58.0278 59.0049 57.4637 59.0049C42.5248 59.0231 27.5859 59.0231 12.6288 59.0049C12.0647 59.0049 11.8464 59.1872 11.6826 59.716C11.0276 61.8494 10.3361 63.9645 9.64467 66.0796C9.18977 67.4654 8.35275 68.0671 6.91527 68.0854C6.29661 68.0854 5.67794 68.1036 5.07748 68.0854C3.42164 68.0489 2.29349 66.7907 2.54823 65.1497C3.07592 61.7764 3.69458 58.4214 4.25866 55.0481C4.45881 53.8994 4.65897 52.7689 4.85912 51.5472C4.25865 51.5472 3.69458 51.5654 3.11231 51.5472C1.38369 51.5107 0.091772 50.2344 0.091772 48.5022C0.073576 41.6462 0.073576 34.7902 0.091772 27.916C0.091772 26.1291 1.3291 24.871 3.1487 24.8527C5.76892 24.8163 8.37095 24.8345 10.9912 24.8345C11.2641 24.8345 11.5189 24.8345 11.8282 24.8345C11.8282 24.2693 11.8282 23.7769 11.8282 23.2664C11.8282 22.2635 12.3377 21.6983 13.3203 21.5707C13.8843 21.4977 14.4484 21.4248 15.0125 21.3518C15.0489 21.3518 15.0853 21.3154 15.2126 21.2607C14.7577 20.3125 14.321 19.3461 13.8116 18.4162C13.4294 17.7051 13.3567 17.0122 13.6842 16.2646C13.9571 15.6629 14.1391 15.0247 14.3756 14.4047C14.7759 13.3836 15.522 13.0554 16.5591 13.4018C17.0504 13.566 17.5235 13.7665 18.1058 13.9671C18.0148 12.8913 17.9784 11.9249 17.8693 10.9585C17.7783 10.1562 17.9602 9.48156 18.5425 8.91631C19.052 8.42399 19.4887 7.85874 19.98 7.36643C20.6532 6.67354 21.4175 6.63707 22.1817 7.20232C22.673 7.567 23.1461 7.94992 23.6374 8.33283C23.6556 8.35107 23.6738 8.33283 23.783 8.33283C24.1105 7.4029 24.4744 6.45472 24.7473 5.48832C24.9839 4.59486 25.4934 4.02963 26.3486 3.70141C26.9309 3.48261 27.4585 3.19087 28.0226 2.95383C28.987 2.53445 29.7694 2.82617 30.2425 3.7561C30.4245 4.12078 30.5883 4.48548 30.8066 4.95956C31.2251 4.2849 31.6072 3.70141 31.953 3.09969C32.3351 2.4068 32.881 2.0786 33.6634 2.06036C34.7006 2.02389 35.7559 1.95095 36.7931 1.91448C37.8667 1.87801 38.4489 2.37034 38.6309 3.42791C38.7037 3.93846 38.7583 4.44901 38.831 5.06896C39.5589 4.54017 40.2139 4.10256 40.8508 3.62847C41.4331 3.19086 42.0153 3.09969 42.7068 3.35497C43.6712 3.73788 44.672 4.08432 45.6363 4.449C46.7827 4.88661 47.1102 5.6342 46.7099 6.7647C46.5825 7.11114 46.4552 7.43937 46.2914 7.89522C47.0556 7.71288 47.7107 7.58523 48.3476 7.38466C49.1482 7.16585 49.8032 7.31173 50.4037 7.91344C51.1315 8.62457 51.914 9.29923 52.66 9.99212C53.4606 10.7397 53.5334 11.5238 52.8602 12.399C52.5508 12.8001 52.2415 13.1831 51.8776 13.6207C52.751 13.7665 53.5334 13.9306 54.3158 14.04C55.0255 14.1312 55.535 14.4776 55.8261 15.1523C56.2628 16.1369 56.7177 17.1033 57.1544 18.0697C57.6275 19.1455 57.3364 19.9114 56.281 20.4219C55.9353 20.586 55.5896 20.7501 55.2074 20.9325C56.5539 21.9353 58.6283 22.3365 58.0096 24.8163C58.3917 24.8163 58.6647 24.8163 58.9194 24.8163C61.3577 24.8163 63.796 24.871 66.216 24.7981C68.0538 24.7434 69.3275 25.3998 69.9462 27.1867C70.0008 33.5321 70.0008 39.8775 70.0008 46.2047ZM36.1016 46.5329C36.3564 46.5511 36.5384 46.5876 36.7203 46.5876C46.7099 46.5876 56.6813 46.5876 66.6709 46.5876C67.6717 46.5876 67.981 46.2776 67.981 45.2747C67.981 43.0866 67.981 40.8986 67.981 38.7105C67.981 35.1731 67.981 31.654 67.981 28.1166C67.981 27.5696 67.8719 27.0955 67.2896 26.9496C67.0166 26.8767 66.7073 26.895 66.4162 26.895C52.0231 26.895 37.6301 26.895 23.2371 26.895C16.6865 26.895 10.136 26.895 3.5854 26.895C2.47545 26.895 2.2207 27.1685 2.2207 28.2625C2.2207 29.9036 2.2207 31.5446 2.2207 33.1857C2.2207 33.8786 2.2207 34.5896 2.2207 35.3372C2.56643 35.3372 2.83937 35.3372 3.11231 35.3372C4.27685 35.3372 5.44139 35.319 6.58774 35.3555C7.2246 35.3737 7.66131 35.8113 7.66131 36.3766C7.66131 36.9419 7.2246 37.3612 6.58774 37.3795C5.55057 37.3977 4.4952 37.3977 3.45803 37.3977C3.05772 37.3977 2.65741 37.3977 2.2389 37.3977C2.2389 41.0445 2.2389 44.5818 2.2389 48.101C2.2389 49.2315 2.51184 49.505 3.65819 49.505C10.5727 49.505 17.4871 49.505 24.4016 49.505C25.457 49.505 25.6389 49.3226 25.6389 48.2833C25.6389 45.0924 25.6389 41.9014 25.6389 38.7105C25.6389 37.5435 25.4934 37.3977 24.347 37.3977C20.2529 37.3977 16.1588 37.3977 12.0647 37.3977C11.81 37.3977 11.5552 37.3977 11.3187 37.3795C10.7728 37.3065 10.4453 36.9783 10.4271 36.4313C10.4089 35.8478 10.7182 35.5013 11.3005 35.3919C11.4643 35.3555 11.6098 35.3555 11.7736 35.3555C16.0497 35.3555 20.3257 35.3555 24.6018 35.3555C26.5669 35.3555 27.6587 36.486 27.6769 38.4735C27.6769 38.9293 27.6769 39.367 27.6769 39.8775C29.1326 39.8775 30.4973 39.8775 31.862 39.8775C34.5914 39.8775 36.138 41.4274 36.1562 44.1442C36.1016 44.91 36.1016 45.7124 36.1016 46.5329ZM14.0117 23.5582C13.8297 24.7981 13.8479 24.8345 14.9761 24.8345C17.6873 24.8345 20.3803 24.8345 23.0915 24.8345C23.3281 24.8345 23.5828 24.8345 23.8193 24.8345C24.2197 18.4891 29.0598 14.2588 34.4458 13.9671C37.157 13.8212 39.6317 14.5506 41.797 16.2099C44.6174 18.3615 46.0731 21.2607 46.3096 24.7981C49.6031 24.7981 52.8238 24.7981 56.0445 24.7981C56.2264 24.1781 56.0263 23.8134 55.4986 23.5399C54.7889 23.1752 54.1339 22.7376 53.4606 22.3C52.2779 21.5342 52.3689 20.0937 53.6426 19.4555C54.1703 19.2002 54.698 18.9632 55.262 18.7079C54.9163 17.9603 54.6434 17.2674 54.2794 16.611C54.1339 16.3557 53.8245 16.1187 53.5516 16.0458C52.7146 15.8452 51.8594 15.754 51.0042 15.6081C49.5485 15.3711 49.0572 14.0947 49.9488 12.9278C50.3491 12.4172 50.7494 11.9067 51.1679 11.3597C50.4947 10.7397 49.8942 10.1562 49.2574 9.62744C49.1118 9.4998 48.8025 9.48157 48.5841 9.51804C47.7107 9.70038 46.8737 9.95564 46.0003 10.1197C44.6356 10.375 43.744 9.31746 44.1625 8.00461C44.3444 7.4576 44.5628 6.91059 44.7811 6.3271C44.0169 6.03536 43.3073 5.72538 42.5612 5.50658C42.3065 5.43364 41.9426 5.48833 41.7242 5.63421C41.0146 6.09005 40.3413 6.6006 39.6681 7.09292C38.3216 8.04108 37.1024 7.47583 36.9205 5.83477C36.8477 5.25129 36.7931 4.66782 36.7385 4.13903C35.8105 4.13903 34.9553 4.12079 34.1001 4.15726C33.9363 4.15726 33.718 4.37607 33.6088 4.54017C33.1175 5.28776 32.699 6.05359 32.2077 6.80118C31.4617 7.94992 30.0242 7.85874 29.4055 6.63707C29.1326 6.10829 28.9142 5.57949 28.6595 5.03248C27.5859 5.36069 26.6943 5.72537 26.476 7.00175C26.3304 7.84051 25.9483 8.6428 25.6753 9.46333C25.1659 10.9403 24.0559 11.2867 22.8368 10.3021C22.3455 9.90094 21.8542 9.4998 21.3265 9.06219C21.0536 9.35393 20.8352 9.62743 20.5805 9.84623C20.0892 10.2656 19.9436 10.7579 20.0528 11.4143C20.1983 12.4537 20.2347 13.493 20.2711 14.5506C20.3257 15.8452 19.3249 16.5745 18.1058 16.1552C17.5053 15.9546 16.9231 15.7358 16.268 15.4987C16.1588 15.7905 16.1042 16.064 15.9587 16.301C15.5766 16.9575 15.6675 17.5592 16.0497 18.1974C16.541 19.0361 16.9413 19.9478 17.3598 20.8231C18.0148 22.1906 17.4326 23.2299 15.9223 23.3758C15.249 23.4123 14.6304 23.4852 14.0117 23.5582ZM57.5183 56.908C56.6631 54.264 55.8443 51.7478 55.0437 49.2133C54.8981 48.7574 54.698 48.6298 54.2431 48.6298C51.1315 48.648 48.02 48.648 44.8903 48.648C44.6902 48.648 44.49 48.6663 44.308 48.6845C43.7804 52.1307 42.2337 53.9176 39.5589 54.1182C38.3943 54.2093 37.3026 53.9176 36.32 53.2612C34.7006 52.1671 34.0455 50.5626 34.0091 48.6298C31.953 48.6298 29.9696 48.6298 28.0044 48.648C27.8589 48.648 27.6405 48.8851 27.6041 49.0492C27.2402 50.7267 26.2576 51.529 24.529 51.529C21.5812 51.529 18.6153 51.529 15.6675 51.529C15.2308 51.529 14.8123 51.529 14.3756 51.529C13.7934 53.3341 13.2293 55.1028 12.647 56.908C27.6405 56.908 42.5248 56.908 57.5183 56.908ZM44.2353 24.8163C43.9987 21.6071 42.6522 19.1091 39.9956 17.4498C36.7567 15.4258 33.3904 15.4258 30.1516 17.4498C27.4949 19.1091 26.1484 21.6071 25.9119 24.8163C27.0582 24.8163 28.1318 24.798 29.1872 24.8163C29.6421 24.8345 29.8422 24.7251 29.9332 24.2145C30.1879 22.7376 30.9704 21.5707 32.2441 20.7501C35.4102 18.7079 39.5407 20.5313 40.2685 24.2875C40.3049 24.4881 40.5051 24.7798 40.6324 24.7981C41.797 24.8345 42.9797 24.8163 44.2353 24.8163ZM6.96986 51.5472C6.46037 54.5011 5.95088 57.4003 5.45959 60.3177C5.18665 61.9223 4.89551 63.5451 4.64077 65.1497C4.5316 65.8608 4.67716 65.9885 5.38681 66.0067C5.84171 66.0067 6.29661 65.9702 6.75151 66.0249C7.37017 66.0796 7.62491 65.8243 7.80687 65.2409C9.18977 60.8829 10.5909 56.5433 11.992 52.2036C12.0647 52.003 12.1011 51.7842 12.1557 51.5472C10.4089 51.5472 8.73487 51.5472 6.96986 51.5472ZM33.9909 46.5329C33.9909 45.4206 34.0637 44.3631 33.9727 43.3055C33.8999 42.5761 33.354 42.0109 32.608 41.9744C30.9886 41.9015 29.3509 41.9562 27.6951 41.9562C27.6951 43.506 27.6951 45.0195 27.6951 46.5329C29.8058 46.5329 31.8802 46.5329 33.9909 46.5329ZM36.1198 48.6662C36.0653 49.9973 36.502 51.0002 37.6119 51.6566C38.6855 52.2948 39.7954 52.2583 40.8326 51.5654C41.8334 50.8908 42.2701 49.9244 42.1609 48.6845C40.1412 48.6663 38.176 48.6662 36.1198 48.6662ZM38.1942 24.7981C38.0486 23.1023 36.6293 21.9353 34.8825 21.99C33.354 22.0447 31.9894 23.3576 31.9894 24.7981C34.0455 24.7981 36.1016 24.7981 38.1942 24.7981Z" fill="#E84E0E"/>
<path d="M8.98907 47.3538C6.80555 47.3538 5.04054 45.5669 5.05873 43.397C5.07693 41.2454 6.84194 39.5132 8.98907 39.5132C11.1544 39.5132 12.9376 41.3183 12.9194 43.4699C12.883 45.6215 11.1362 47.3538 8.98907 47.3538ZM8.98907 41.5554C7.97009 41.5554 7.11488 42.3759 7.09668 43.397C7.07849 44.4181 7.89731 45.2751 8.91628 45.2933C9.97165 45.3116 10.8451 44.4728 10.8451 43.4152C10.8633 42.3941 10.0262 41.5554 8.98907 41.5554Z" fill="#E84E0E"/>
<path d="M22.6901 43.4333C22.6901 45.6031 20.9615 47.3354 18.7962 47.3536C16.6127 47.3718 14.8477 45.6031 14.8477 43.4151C14.8477 41.227 16.6127 39.4765 18.8144 39.4948C20.9797 39.513 22.6901 41.2635 22.6901 43.4333ZM20.6522 43.4151C20.6522 42.3757 19.8334 41.5552 18.7962 41.5552C17.7772 41.5552 16.9402 42.3757 16.922 43.4151C16.922 44.4726 17.759 45.3114 18.8144 45.2932C19.8516 45.2749 20.6522 44.4544 20.6522 43.4151Z" fill="#E84E0E"/>
</svg>
