<svg width="70" height="70" viewBox="0 0 70 70" fill="none" xmlns="http://www.w3.org/2000/svg">
<path d="M30.0774 14.0147C29.113 13.0501 28.2578 12.2311 27.439 11.3938C26.4928 10.4474 26.4382 9.15515 27.2934 8.29971C28.1486 7.42608 29.4223 7.46248 30.3867 8.42712C31.7696 9.79217 33.1161 11.1572 34.499 12.5223C34.6446 12.6679 34.8265 12.8135 35.0813 13.0501C35.0813 12.7043 35.0813 12.4859 35.0813 12.2675C35.0813 9.42816 35.0813 6.58884 35.0813 3.73133C35.0813 2.34807 35.9547 1.36523 37.1738 1.36523C38.393 1.36523 39.2664 2.32987 39.2664 3.73133C39.2664 8.0267 39.2846 12.3221 39.2664 16.6356C39.2664 17.1089 39.3937 17.4365 39.7395 17.7641C47.6183 25.645 55.4972 33.5259 63.3761 41.4068C63.4124 41.4432 63.4488 41.4796 63.467 41.4978C64.5952 42.6263 64.7226 43.8639 63.7946 44.7922C62.8666 45.7204 61.6474 45.6112 60.5011 44.4646C59.7369 43.7001 58.9726 42.8993 58.1538 42.0803C57.9173 42.2987 57.7353 42.4807 57.5351 42.6627C49.7109 50.489 41.8684 58.3335 34.0441 66.1598C31.4603 68.7443 27.8757 69.2176 24.9643 67.3611C24.4366 67.0153 23.9453 66.5966 23.4904 66.1598C17.6313 60.3174 11.7722 54.4568 5.93129 48.5961C2.81978 45.4656 2.81978 41.152 5.93129 38.0397C13.7556 30.1952 21.598 22.3689 29.4223 14.5426C29.6043 14.3606 29.8226 14.2149 30.0774 14.0147ZM39.2664 23.2971C39.2664 24.9716 39.3028 26.5368 39.2482 28.1021C39.23 28.7391 39.3937 29.0849 40.0124 29.3762C42.6144 30.632 43.9245 33.5441 43.2695 36.347C42.6144 39.1681 40.1398 41.1702 37.2648 41.2066C34.2443 41.243 31.6422 39.1681 31.0054 36.2378C30.3867 33.3621 31.8606 30.45 34.59 29.2306C34.9721 29.0667 35.0813 28.8665 35.0813 28.4843C35.0631 25.4994 35.0813 22.5327 35.0631 19.5478C35.0631 19.3294 35.0449 19.0563 34.9357 18.9107C34.317 18.2191 33.662 17.5821 33.0251 16.9087C32.8068 17.1089 32.6976 17.2181 32.5884 17.3273C24.7278 25.19 16.8671 33.0527 9.00642 40.9154C7.42337 42.4989 7.42336 44.1187 9.02461 45.7204C14.7745 51.4718 20.5427 57.2415 26.2926 62.9929C27.9848 64.6856 29.6225 64.6856 31.3147 62.9929C39.1208 55.203 46.9087 47.3949 54.7148 39.5868C54.8603 39.4412 55.0059 39.2592 55.1515 39.1317C49.8382 33.8717 44.616 28.6481 39.2664 23.2971ZM37.1556 32.8525C36.0093 32.8525 35.0631 33.7625 35.0631 34.9092C35.0449 36.0558 35.9729 37.0023 37.1192 37.0023C38.302 37.0205 39.2664 36.074 39.2664 34.9092C39.2482 33.7807 38.302 32.8525 37.1556 32.8525Z" fill="#E84E0E"/>
<path d="M66.5962 61.318C66.3415 65.3586 63.0298 68.5437 59.0813 68.4709C55.0236 68.3981 51.7119 65.0674 51.8939 61.045C51.9485 59.8255 52.4398 58.5697 52.9492 57.423C54.0956 54.8567 55.7696 52.5999 57.5164 50.4158C58.3171 49.4147 59.9001 49.3055 60.7007 50.2884C62.8479 52.9457 64.8494 55.694 66.0504 58.9519C66.3233 59.7163 66.4143 60.5354 66.5962 61.318ZM59.3542 55.2208C59.2269 55.2208 59.1177 55.2026 58.9903 55.2026C58.0805 56.8406 57.1161 58.4605 56.2973 60.135C55.6786 61.3908 56.1517 62.7741 57.2981 63.6295C58.408 64.4667 59.9183 64.4667 61.0465 63.6295C62.1746 62.7923 62.6659 61.3908 62.0654 60.135C61.2284 58.4787 60.2458 56.877 59.3542 55.2208Z" fill="#E84E0E"/>
</svg>
