<svg width="70" height="70" viewBox="0 0 70 70" fill="none" xmlns="http://www.w3.org/2000/svg">
<path d="M67.367 69.9997C45.8328 69.9997 24.2985 69.9997 2.76433 69.9997C0.638166 69.1627 0.183858 68.4713 0.183858 66.1058C0.183858 48.9107 0.183858 31.7155 0.183858 14.5386C0.183858 14.3202 0.165686 14.0837 0.183858 13.8653C0.238375 13.2831 0.674511 12.8646 1.20151 12.8646C1.72851 12.8646 2.16464 13.2831 2.21916 13.8653C2.23733 14.0655 2.21916 14.2657 2.21916 14.484C2.21916 20.707 2.21916 26.9482 2.21916 33.1712C2.21916 33.4441 2.21916 33.7171 2.21916 33.99C5.30846 33.99 8.32506 33.99 11.3598 33.99C11.3598 23.3818 11.3598 12.81 11.3598 2.20178C11.1054 2.20178 10.9055 2.20178 10.7056 2.20178C8.34324 2.20178 5.98083 2.20178 3.61843 2.20178C2.52809 2.20178 2.23733 2.51111 2.23733 3.56647C2.23733 5.29508 2.23733 7.02369 2.23733 8.75231C2.23733 9.55292 1.83754 9.98962 1.18334 9.97142C0.565477 9.95323 0.20203 9.53473 0.20203 8.75231C0.20203 7.36942 0.20203 5.98652 0.20203 4.58544C0.20203 4.27611 0.20203 3.94859 0.20203 3.63926C0.20203 1.34658 1.38323 0.145633 3.67295 0.145633C24.5166 0.145633 45.3603 0.163833 66.2221 0.127441C68.0939 0.127441 69.3841 0.764298 69.9838 2.58389C69.9838 16.1034 69.9838 29.6048 69.9838 43.1244C69.6022 43.5429 69.1842 43.8886 68.5845 43.6338C67.9667 43.3791 67.9122 42.8332 67.9485 42.2692C67.9485 42.1418 67.9485 41.9962 67.9485 41.8689C67.9485 34.2994 67.9485 26.7298 67.9485 19.1604C67.9485 18.8874 67.9485 18.6327 67.9485 18.3597C64.8592 18.3597 61.8426 18.3597 58.7896 18.3597C58.7896 34.8998 58.7896 51.3853 58.7896 67.9618C59.0804 67.9618 59.3166 67.9618 59.5711 67.9618C61.8608 67.9618 64.1505 67.9618 66.4584 67.9618C67.6759 67.9618 67.9485 67.6888 67.9485 66.4879C67.9485 60.4469 67.9485 54.3876 67.9485 48.3466C67.9485 48.2192 67.9485 48.0737 67.9485 47.9463C67.9122 47.3822 67.9667 46.8363 68.6027 46.5816C69.2206 46.345 69.6204 46.6908 70.002 47.1093C70.002 53.9327 70.002 60.7562 70.002 67.5797C69.5477 68.8352 68.6754 69.654 67.367 69.9997ZM33.9662 67.889C33.9662 45.9993 33.9662 24.1278 33.9662 2.23816C30.9133 2.23816 27.9148 2.23816 24.8619 2.23816C24.8619 24.1278 24.8619 45.9993 24.8619 67.889C27.9148 67.889 30.9315 67.889 33.9662 67.889ZM47.4865 2.23816C47.4865 24.1278 47.4865 45.9993 47.4865 67.889C50.5212 67.889 53.5378 67.889 56.5908 67.889C56.5908 45.9993 56.5908 24.1278 56.5908 2.23816C53.5378 2.23816 50.5394 2.23816 47.4865 2.23816ZM22.6449 48.9471C22.6449 33.3532 22.6449 17.8139 22.6449 2.23816C19.5919 2.23816 16.5935 2.23816 13.5587 2.23816C13.5587 17.8321 13.5587 33.3714 13.5587 48.9471C16.5935 48.9471 19.5919 48.9471 22.6449 48.9471ZM36.1651 36.0462C36.1651 46.6908 36.1651 57.2808 36.1651 67.889C39.218 67.889 42.2165 67.889 45.2513 67.889C45.2513 57.2444 45.2513 46.6544 45.2513 36.0462C42.1983 36.0462 39.218 36.0462 36.1651 36.0462ZM11.378 36.1371C8.30689 36.1371 5.29028 36.1371 2.2555 36.1371C2.23733 36.3191 2.23733 36.4647 2.23733 36.592C2.23733 46.618 2.23733 56.6439 2.23733 66.6699C2.23733 67.5978 2.58261 67.9254 3.52757 67.9254C5.79911 67.9254 8.07065 67.9254 10.3422 67.9254C10.6693 67.9254 11.0146 67.9254 11.378 67.9254C11.378 57.2808 11.378 46.7272 11.378 36.1371ZM45.2694 2.23816C42.1801 2.23816 39.1817 2.23816 36.1469 2.23816C36.1469 12.8282 36.1469 23.3636 36.1469 33.9172C39.1999 33.9172 42.2346 33.9172 45.2694 33.9172C45.2694 23.3454 45.2694 12.8282 45.2694 2.23816ZM22.663 51.076C19.5919 51.076 16.5571 51.076 13.5587 51.076C13.5587 56.7167 13.5587 62.2847 13.5587 67.8708C16.6117 67.8708 19.6283 67.8708 22.663 67.8708C22.663 62.2665 22.663 56.6985 22.663 51.076ZM67.9122 16.2126C67.9122 11.8456 67.9122 7.55136 67.9122 3.25713C67.9122 2.52929 67.5124 2.20178 66.6946 2.20178C64.8047 2.18358 62.9329 2.20178 61.043 2.20178C60.298 2.20178 59.5529 2.20178 58.7715 2.20178C58.7715 6.91452 58.7715 11.5545 58.7715 16.2126C61.8244 16.2126 64.8229 16.2126 67.9122 16.2126Z" fill="#E84E0E"/>
<path d="M61.4062 20.8887C61.9332 20.8705 62.4057 21.3072 62.4421 21.8531C62.4784 22.4172 62.0241 22.9085 61.4608 22.9267C60.9156 22.9449 60.4431 22.5264 60.4068 21.9805C60.3886 21.4164 60.8611 20.9069 61.4062 20.8887Z" fill="#E84E0E"/>
<path d="M66.312 21.9439C66.2938 22.508 65.8577 22.9265 65.3125 22.9265C64.731 22.9265 64.2949 22.4716 64.313 21.8893C64.3312 21.3435 64.7855 20.9068 65.3125 20.9068C65.8759 20.8886 66.3302 21.3617 66.312 21.9439Z" fill="#E84E0E"/>
<path d="M9.72416 30.6601C9.72416 31.2242 9.3062 31.6427 8.76103 31.6609C8.17951 31.6791 7.70703 31.2242 7.70703 30.6601C7.70703 30.1324 8.16134 29.6593 8.68834 29.6411C9.25168 29.6229 9.72416 30.096 9.72416 30.6601Z" fill="#E84E0E"/>
<path d="M5.87124 30.6783C5.87124 31.2424 5.38059 31.6973 4.79907 31.6609C4.2539 31.6427 3.83594 31.206 3.83594 30.6419C3.83594 30.096 4.27207 29.6411 4.81724 29.6411C5.38059 29.6229 5.88941 30.1142 5.87124 30.6783Z" fill="#E84E0E"/>
<path d="M28.5319 64.9772C28.5501 65.5413 28.0776 66.0326 27.5143 66.0326C26.9873 66.0326 26.5148 65.5777 26.4966 65.05C26.4784 64.4859 26.9509 63.9946 27.5143 63.9946C28.0594 63.9946 28.5137 64.4313 28.5319 64.9772Z" fill="#E84E0E"/>
<path d="M27.5324 4.73098C28.0776 4.73098 28.5137 5.16766 28.5319 5.71354C28.5319 6.29581 28.0776 6.75072 27.4961 6.73253C26.9509 6.73253 26.4966 6.27762 26.4966 5.74994C26.4784 5.18587 26.9509 4.71278 27.5324 4.73098Z" fill="#E84E0E"/>
<path d="M31.3641 4.73102C31.9456 4.71282 32.3999 5.14952 32.3999 5.73179C32.3999 6.29586 31.982 6.71437 31.4186 6.73257C30.8371 6.75076 30.3828 6.31404 30.3828 5.71358C30.3828 5.14951 30.8008 4.73102 31.3641 4.73102Z" fill="#E84E0E"/>
<path d="M32.3823 64.9954C32.4005 65.5595 31.928 66.0508 31.3646 66.0326C30.8376 66.0326 30.3833 65.5777 30.3833 65.0318C30.3652 64.4495 30.8195 63.9946 31.401 63.9946C31.9462 63.9946 32.3823 64.4313 32.3823 64.9954Z" fill="#E84E0E"/>
<path d="M51.1374 5.98638C51.1193 6.55045 50.6286 6.98716 50.0471 6.96896C49.5019 6.93257 49.084 6.47768 49.1021 5.9318C49.1203 5.38593 49.5746 4.94922 50.1198 4.94922C50.665 4.93102 51.1556 5.4223 51.1374 5.98638Z" fill="#E84E0E"/>
<path d="M54.9898 5.95012C54.9898 6.53239 54.5536 6.98728 53.9721 6.96909C53.427 6.95089 52.9908 6.51419 52.9727 5.96831C52.9727 5.40424 53.4633 4.91296 54.0085 4.93115C54.5537 4.94935 54.9898 5.40424 54.9898 5.95012Z" fill="#E84E0E"/>
<path d="M51.1388 65.2687C51.1206 65.8328 50.63 66.2877 50.0666 66.2513C49.5215 66.2149 49.1035 65.76 49.1217 65.2141C49.1398 64.6318 49.6123 64.2133 50.1938 64.2315C50.7208 64.2679 51.157 64.7228 51.1388 65.2687Z" fill="#E84E0E"/>
<path d="M53.9521 66.2512C53.3888 66.233 52.9344 65.7235 52.9708 65.1776C53.0071 64.6317 53.4614 64.2314 54.0066 64.2496C54.5881 64.2678 55.0061 64.7227 54.9697 65.305C54.9516 65.8508 54.4973 66.2694 53.9521 66.2512Z" fill="#E84E0E"/>
<path d="M17.1916 45.7812C17.2097 46.3089 16.7554 46.7819 16.2102 46.8001C15.6287 46.8183 15.1562 46.3816 15.1562 45.7994C15.1562 45.2535 15.5742 44.7986 16.1194 44.7622C16.6646 44.744 17.1734 45.2353 17.1916 45.7812Z" fill="#E84E0E"/>
<path d="M20.0455 46.7997C19.5003 46.7997 19.046 46.3629 19.0278 45.8171C19.0097 45.2712 19.5003 44.7617 20.0455 44.7617C20.6088 44.7617 21.0631 45.253 21.045 45.8171C21.0268 46.3993 20.5907 46.8178 20.0455 46.7997Z" fill="#E84E0E"/>
<path d="M39.8171 39.5218C39.7989 40.0858 39.2901 40.5407 38.7268 40.5044C38.1816 40.468 37.7636 39.9949 37.7818 39.449C37.8 38.8849 38.2906 38.43 38.854 38.4664C39.4173 38.5028 39.8353 38.9759 39.8171 39.5218Z" fill="#E84E0E"/>
<path d="M43.6856 39.4852C43.6856 40.0311 43.2495 40.486 42.7043 40.5042C42.1409 40.5224 41.6503 40.0311 41.6685 39.4852C41.6685 38.9211 42.1591 38.4662 42.7225 38.4844C43.2676 38.5026 43.6856 38.9393 43.6856 39.4852Z" fill="#E84E0E"/>
<path d="M5.86926 39.3939C5.88743 39.9215 5.4513 40.3946 4.90613 40.4128C4.32461 40.4492 3.85213 40.0125 3.85213 39.4302C3.83396 38.8844 4.25192 38.4295 4.79709 38.3931C5.34226 38.3567 5.85109 38.8298 5.86926 39.3939Z" fill="#E84E0E"/>
<path d="M8.68834 40.4133C8.14317 40.3951 7.70703 39.9584 7.70703 39.4125C7.70703 38.8666 8.19768 38.3754 8.76103 38.3936C9.34254 38.4118 9.7605 38.8848 9.72416 39.4671C9.70599 40.0312 9.25168 40.4315 8.68834 40.4133Z" fill="#E84E0E"/>
<path d="M39.8171 30.7326C39.8171 31.2967 39.3264 31.788 38.7813 31.7698C38.2543 31.7516 37.8 31.2967 37.7818 30.7691C37.7636 30.2232 38.1998 29.7683 38.7449 29.7501C39.3264 29.7137 39.8171 30.1686 39.8171 30.7326Z" fill="#E84E0E"/>
<path d="M43.6865 30.7327C43.6865 31.2968 43.214 31.7881 42.6688 31.7699C42.1418 31.7517 41.6875 31.2786 41.6875 30.7509C41.6875 30.1868 42.16 29.7319 42.7233 29.7319C43.2503 29.7501 43.6683 30.1686 43.6865 30.7327Z" fill="#E84E0E"/>
<path d="M20.0636 53.5323C20.6269 53.5505 21.063 54.0418 21.0449 54.6058C21.0085 55.1517 20.5724 55.5702 20.009 55.552C19.4457 55.5338 18.9732 55.0425 19.0277 54.4785C19.0641 53.9508 19.5366 53.5141 20.0636 53.5323Z" fill="#E84E0E"/>
<path d="M17.1916 54.5513C17.1916 55.1154 16.7009 55.5703 16.1194 55.5521C15.5742 55.5339 15.1562 55.0972 15.1562 54.5331C15.1562 53.9872 15.5924 53.5324 16.1376 53.5142C16.7009 53.5142 17.1916 54.0054 17.1916 54.5513Z" fill="#E84E0E"/>
<path d="M62.4577 13.1374C62.4759 13.7015 62.0034 14.1928 61.44 14.1928C60.8949 14.1928 60.4406 13.7379 60.4224 13.2102C60.4042 12.6461 60.8767 12.1548 61.44 12.1548C61.9852 12.1366 62.4395 12.5915 62.4577 13.1374Z" fill="#E84E0E"/>
<path d="M66.3106 13.192C66.2924 13.7379 65.8563 14.1746 65.3111 14.1928C64.7478 14.1928 64.2753 13.7378 64.2935 13.1556C64.3116 12.6097 64.7478 12.173 65.293 12.1548C65.8745 12.1366 66.3288 12.6097 66.3106 13.192Z" fill="#E84E0E"/>
</svg>
