<svg width="70" height="70" viewBox="0 0 70 70" fill="none" xmlns="http://www.w3.org/2000/svg">
<path d="M0 31.3911C0.273438 29.9966 0.478516 28.5747 0.820312 27.1938C2.40625 20.8227 5.52344 15.4087 10.8008 11.3755C14.3418 8.66846 18.3613 7.26026 22.832 7.24659C27.4941 7.21925 32.1563 7.20557 36.8184 7.24659C43.8047 7.30128 49.2324 10.5005 53.4434 15.8735C57.2578 20.727 59.2129 26.3325 59.7051 32.4575C60.0742 36.9966 62.4668 40.2915 66.0898 42.7935C66.4453 43.0396 66.9238 43.1626 67.3613 43.231C68.6465 43.4497 69.6309 44.4751 69.7129 45.7739C69.7266 46.02 69.7266 46.2798 69.7266 46.5259C69.7129 47.6196 69.1797 48.1665 68.0859 48.1665C64.6816 48.1802 61.2637 48.1802 57.8594 48.1665C57.3535 48.1665 57.1074 48.3169 56.9023 48.7817C54.4414 54.0454 50.8594 58.27 45.623 60.9497C42.957 62.3169 40.0996 63.0278 37.1055 63.0552C32.334 63.0825 27.5488 63.1099 22.7773 63.0552C16.4473 62.9868 11.3477 60.2524 7.21875 55.5903C3.14453 50.9829 0.957031 45.5142 0.136719 39.4712C0.109375 39.2798 0.0410156 39.0884 0 38.8833C0 36.395 0 33.8931 0 31.3911ZM1.88672 35.8481C1.98242 36.7915 2.06445 38.4732 2.32422 40.1274C3.28125 46.1567 5.70117 51.4888 10.1992 55.6997C14.998 60.1841 20.6445 62.0571 27.1387 60.4302C32.3887 59.1177 36.2715 55.8227 39.1289 51.352C43.668 44.2427 44.7754 36.4907 43.0254 28.3149C41.7676 22.436 39.0195 17.3501 34.2891 13.522C29.8457 9.91259 24.7734 8.47704 19.1133 9.72118C14.4238 10.7466 10.7598 13.4126 7.84766 17.145C3.74609 22.4087 2.00977 28.4927 1.88672 35.8481ZM31.8281 9.39307C32.4297 9.74854 33.0449 10.0903 33.6328 10.4731C34.2207 10.8559 34.8086 11.2524 35.3555 11.6899C40.9336 16.2017 43.9961 22.1626 45.3086 29.1079C45.7734 31.5825 46.0059 34.0981 46.8398 36.4907C47.7559 39.1294 48.8086 41.6723 50.7363 43.7641C52.1582 45.3091 53.8945 46.1431 56.041 46.1294C59.4316 46.102 62.8086 46.1294 66.1992 46.1294C66.6914 46.1294 67.1836 46.1294 67.6758 46.1294C67.7031 45.5688 67.4707 45.3638 67.0332 45.2544C66.4727 45.104 65.8438 45.0083 65.3652 44.7075C60.9766 41.9321 58.1738 38.0767 57.7227 32.7993C57.2305 27.0981 55.4668 21.8755 51.9941 17.2954C49.2324 13.6724 45.7461 11.061 41.2891 9.84425C38.1582 8.99659 35 9.36572 31.8281 9.39307ZM31.8555 61.0044C33.373 61.0044 34.9043 60.9907 36.4219 61.0044C38.2812 61.0317 40.0996 60.813 41.8633 60.2388C47.9883 58.27 52.0078 53.9907 54.8242 48.3852C54.8516 48.3306 54.8379 48.2622 54.8516 48.1665C49.8066 47.3462 47.5781 43.5317 45.6094 39.2661C45.0078 43.8599 43.6406 48.0161 41.2891 51.8306C38.9238 55.6723 35.8203 58.7622 31.8555 61.0044Z" fill="#E84E0E"/>
<path d="M31.4453 35.3416C31.377 39.2244 30.2832 42.9842 27.3574 46.0057C23.2285 50.2576 17.1582 50.0115 13.3711 45.4451C10.5137 41.9861 9.52932 37.9392 9.89846 33.5232C10.1446 30.5974 11.0742 27.8768 12.8379 25.4978C14.916 22.7088 17.6231 21.0545 21.2188 21.2732C24.0762 21.451 26.291 22.8728 28.0547 25.033C30.4473 27.9724 31.4043 31.3904 31.4453 35.3416ZM22.8867 23.7205C22.709 23.6521 22.627 23.6111 22.5449 23.5838C22.4219 23.5428 22.2852 23.5017 22.1485 23.4744C19.1817 22.8592 16.7617 23.8982 14.9434 26.1678C11.4844 30.4881 11.0742 35.3553 12.8242 40.4549C13.7266 43.0935 15.3399 45.24 17.9785 46.4158C19.5508 47.1131 21.1641 47.1541 22.9004 46.5662C19.6465 43.3943 18.3203 39.5388 18.3067 35.1912C18.293 30.8162 19.6328 26.9197 22.8867 23.7205ZM24.8692 24.8416C18.6758 29.4353 19.0176 41.3299 24.9102 45.4178C31.0488 40.783 30.7071 29.0115 24.8692 24.8416Z" fill="#E84E0E"/>
</svg>
