<svg width="25" height="24" viewBox="0 0 25 24" fill="none" xmlns="http://www.w3.org/2000/svg">
<path d="M2.29688 12.6099H19.2969" stroke="#E84E0E" stroke-width="1.5" stroke-miterlimit="10" stroke-linecap="round" stroke-linejoin="round"/>
<path d="M19.2969 10.2798V17.4298C19.2669 20.2798 18.4868 20.9998 15.5168 20.9998H6.0769C3.0569 20.9998 2.29688 20.2498 2.29688 17.2698V10.2798C2.29688 7.5798 2.92688 6.70981 5.29688 6.56981C5.53687 6.55981 5.7969 6.5498 6.0769 6.5498H15.5168C18.5368 6.5498 19.2969 7.2998 19.2969 10.2798Z" stroke="#E84E0E" stroke-width="1.5" stroke-linecap="round" stroke-linejoin="round"/>
<path d="M22.2969 6.73V13.72C22.2969 16.42 21.6669 17.29 19.2969 17.43V10.28C19.2969 7.3 18.5368 6.55 15.5168 6.55H6.0769C5.7969 6.55 5.53687 6.56 5.29688 6.57C5.32687 3.72 6.1069 3 9.0769 3H18.5168C21.5368 3 22.2969 3.75 22.2969 6.73Z" stroke="#E84E0E" stroke-width="1.5" stroke-linecap="round" stroke-linejoin="round"/>
<path d="M5.54688 17.8101H7.26685" stroke="#E84E0E" stroke-width="1.5" stroke-miterlimit="10" stroke-linecap="round" stroke-linejoin="round"/>
<path d="M9.40625 17.8101H12.8463" stroke="#E84E0E" stroke-width="1.5" stroke-miterlimit="10" stroke-linecap="round" stroke-linejoin="round"/>
</svg>
