<svg width="25" height="24" viewBox="0 0 25 24" fill="none" xmlns="http://www.w3.org/2000/svg">
<path d="M21.4216 11.1198C21.4216 16.0098 17.8716 20.5898 13.0216 21.9298C12.6916 22.0198 12.3316 22.0198 12.0016 21.9298C7.15156 20.5898 3.60156 16.0098 3.60156 11.1198V6.72979C3.60156 5.90979 4.22158 4.97979 4.99158 4.66979L10.5616 2.38982C11.8116 1.87982 13.2216 1.87982 14.4716 2.38982L20.0416 4.66979C20.8016 4.97979 21.4316 5.90979 21.4316 6.72979L21.4216 11.1198Z" stroke="#E84E0E" stroke-width="1.5" stroke-linecap="round" stroke-linejoin="round"/>
<path d="M12.5117 12.5C13.6163 12.5 14.5117 11.6046 14.5117 10.5C14.5117 9.39543 13.6163 8.5 12.5117 8.5C11.4071 8.5 10.5117 9.39543 10.5117 10.5C10.5117 11.6046 11.4071 12.5 12.5117 12.5Z" stroke="#E84E0E" stroke-width="1.5" stroke-miterlimit="10" stroke-linecap="round" stroke-linejoin="round"/>
<path d="M12.5117 12.5V15.5" stroke="#E84E0E" stroke-width="1.5" stroke-miterlimit="10" stroke-linecap="round" stroke-linejoin="round"/>
</svg>
