<svg width="25" height="24" viewBox="0 0 25 24" fill="none" xmlns="http://www.w3.org/2000/svg">
<path d="M12.2869 14H13.2869C14.3869 14 15.2869 13.1 15.2869 12V2H6.28687C4.78687 2 3.47688 2.82999 2.79688 4.04999" stroke="#E84E0E" stroke-width="1.5" stroke-linecap="round" stroke-linejoin="round"/>
<path d="M2.28516 17C2.28516 18.66 3.62516 20 5.28516 20H6.28516C6.28516 18.9 7.18516 18 8.28516 18C9.38516 18 10.2852 18.9 10.2852 20H14.2852C14.2852 18.9 15.1852 18 16.2852 18C17.3852 18 18.2852 18.9 18.2852 20H19.2852C20.9452 20 22.2852 18.66 22.2852 17V14H19.2852C18.7352 14 18.2852 13.55 18.2852 13V10C18.2852 9.45 18.7352 9 19.2852 9H20.5751L18.8652 6.01001C18.5052 5.39001 17.8452 5 17.1252 5H15.2852V12C15.2852 13.1 14.3852 14 13.2852 14H12.2852" stroke="#E84E0E" stroke-width="1.5" stroke-linecap="round" stroke-linejoin="round"/>
<path d="M8.28516 22C9.38973 22 10.2852 21.1046 10.2852 20C10.2852 18.8954 9.38973 18 8.28516 18C7.18059 18 6.28516 18.8954 6.28516 20C6.28516 21.1046 7.18059 22 8.28516 22Z" stroke="#E84E0E" stroke-width="1.5" stroke-linecap="round" stroke-linejoin="round"/>
<path d="M16.2852 22C17.3897 22 18.2852 21.1046 18.2852 20C18.2852 18.8954 17.3897 18 16.2852 18C15.1806 18 14.2852 18.8954 14.2852 20C14.2852 21.1046 15.1806 22 16.2852 22Z" stroke="#E84E0E" stroke-width="1.5" stroke-linecap="round" stroke-linejoin="round"/>
<path d="M22.2852 12V14H19.2852C18.7352 14 18.2852 13.55 18.2852 13V10C18.2852 9.45 18.7352 9 19.2852 9H20.5751L22.2852 12Z" stroke="#E84E0E" stroke-width="1.5" stroke-linecap="round" stroke-linejoin="round"/>
<path d="M2.28516 8H8.28516" stroke="#E84E0E" stroke-width="1.5" stroke-linecap="round" stroke-linejoin="round"/>
<path d="M2.28516 11H6.28516" stroke="#E84E0E" stroke-width="1.5" stroke-linecap="round" stroke-linejoin="round"/>
<path d="M2.28516 14H4.28516" stroke="#E84E0E" stroke-width="1.5" stroke-linecap="round" stroke-linejoin="round"/>
</svg>
