<svg width="41" height="32" viewBox="0 0 41 32" fill="none" xmlns="http://www.w3.org/2000/svg">
<path d="M41 10.3182V28.3636C41 29.3636 40.6416 30.2197 39.9247 30.9318C39.2078 31.6439 38.346 32 37.3393 32H3.66071C2.65402 32 1.79222 31.6439 1.07533 30.9318C0.358445 30.2197 0 29.3636 0 28.3636V10.3182C0.671131 11.0606 1.44141 11.7197 2.31083 12.2955C7.8324 16.0227 11.6228 18.6364 13.6819 20.1364C14.5513 20.7727 15.2568 21.2689 15.7983 21.625C16.3398 21.9811 17.0605 22.3447 17.9604 22.7159C18.8603 23.0871 19.6992 23.2727 20.4771 23.2727H20.5H20.5229C21.3008 23.2727 22.1397 23.0871 23.0396 22.7159C23.9395 22.3447 24.6602 21.9811 25.2017 21.625C25.7432 21.2689 26.4487 20.7727 27.3181 20.1364C29.9111 18.2727 33.7091 15.6591 38.7121 12.2955C39.5815 11.7045 40.3441 11.0455 41 10.3182ZM41 3.63636C41 4.83333 40.6263 5.97727 39.8789 7.06818C39.1315 8.15909 38.2011 9.09091 37.0876 9.86364C31.3525 13.8182 27.7833 16.2803 26.38 17.25C26.2275 17.3561 25.9034 17.5871 25.4076 17.9432C24.9119 18.2992 24.5001 18.5871 24.1722 18.8068C23.8442 19.0265 23.4476 19.2727 22.9824 19.5455C22.5172 19.8182 22.0787 20.0227 21.6669 20.1591C21.255 20.2955 20.8737 20.3636 20.5229 20.3636H20.5H20.4771C20.1263 20.3636 19.745 20.2955 19.3331 20.1591C18.9213 20.0227 18.4828 19.8182 18.0176 19.5455C17.5524 19.2727 17.1558 19.0265 16.8278 18.8068C16.4999 18.5871 16.0881 18.2992 15.5924 17.9432C15.0966 17.5871 14.7725 17.3561 14.62 17.25C13.232 16.2803 11.2338 14.8977 8.62556 13.1023C6.0173 11.3068 4.45387 10.2273 3.93527 9.86364C2.98958 9.22727 2.09728 8.35227 1.25837 7.23864C0.419457 6.125 0 5.09091 0 4.13636C0 2.95454 0.316499 1.9697 0.949498 1.18182C1.5825 0.393938 2.48624 0 3.66071 0H37.3393C38.3307 0 39.1887 0.35606 39.9132 1.06818C40.6377 1.7803 41 2.63636 41 3.63636Z" fill="#F8C8B4"/>
</svg>
