<svg width="217" height="51" viewBox="0 0 217 51" fill="none" xmlns="http://www.w3.org/2000/svg">
<path d="M48.3266 22.7101C48.3266 22.7884 48.3266 22.7884 48.3266 22.8405C48.3266 33.5568 39.418 42.2654 28.3358 42.2654C17.3074 42.2654 8.34512 33.5568 8.34512 22.8405C8.34512 22.7623 8.42562 22.7623 8.42562 22.7101C8.50612 11.9939 17.3879 3.36351 28.3358 3.36351C38.0226 3.36351 45.9921 10.0123 47.8972 18.8773H39.0691C37.4323 14.6795 33.2732 11.8114 28.47 11.8114C22.1105 11.8114 17.0391 16.7654 17.0391 22.9187C17.0391 29.0982 22.1374 34.0261 28.47 34.0261C33.7562 34.0261 38.291 30.3758 39.5521 25.6565H37.7275H25.3574V22.7884H22.4594V25.6825V28.6289H34.4807C32.9243 30.1411 30.8045 31.1058 28.47 31.1058C23.801 31.1058 19.9907 27.4555 19.9907 22.9448C19.9907 18.408 23.801 14.7838 28.47 14.7838C32.7097 14.7838 36.2516 17.8604 36.8151 21.9279H39.8473H48.3266H51.1441C50.5806 10.1166 40.6255 0.782227 28.3895 0.782227C15.8853 0.782227 5.71547 10.5859 5.5813 22.7362H0C0 37.9111 12.7189 50.27 28.3358 50.27C44.0064 50.27 56.7254 37.9111 56.7254 22.7362H48.3266V22.7101Z" fill="#E84E0E"/>
<path d="M68.4516 45.5768C68.4516 44.7425 68.4516 44.1949 68.3711 43.5952H69.5786L69.6591 44.7685C70.0884 44.0906 70.7861 43.4648 72.0472 43.4648C73.0401 43.4648 73.8182 44.0124 74.0866 44.8989H74.1671C74.3817 44.4817 74.6501 44.1428 75.0257 43.9342C75.4551 43.5952 75.9381 43.4648 76.6626 43.4648C77.6554 43.4648 79.0507 44.0906 79.0507 46.5415V50.8698H77.7895V46.7501C77.7895 45.3161 77.226 44.4817 76.1527 44.4817C75.3746 44.4817 74.8111 45.0293 74.5159 45.7072C74.4354 45.8375 74.3817 46.1244 74.3817 46.3329V50.8698H73.1206V46.4894C73.1206 45.3161 72.5571 44.5078 71.5642 44.5078C70.7056 44.5078 70.0884 45.1857 69.8737 45.8897C69.7933 46.0201 69.7933 46.3069 69.7933 46.5155V50.8958H68.4516V45.5768Z" fill="black"/>
<path d="M98.2614 47.1409C97.6979 47.1409 97.1344 47.1409 96.6246 47.2192V46.3326C97.1075 46.2544 97.6174 46.2023 98.1809 46.2023V46.0719C98.1809 45.5244 98.0467 44.4814 96.6246 44.4293V43.4645H96.705C99.0395 43.4645 99.5225 44.9768 99.5225 46.4109V49.0965C99.5225 49.7744 99.603 50.3219 99.6567 50.8695H98.476L98.3419 49.9047H98.2614C97.9662 50.3741 97.4027 50.7912 96.6246 50.9216V49.9569C97.4832 49.8787 97.9662 49.3311 98.1809 48.7836C98.1809 48.6532 98.2614 48.4968 98.2614 48.3664V47.1409ZM96.6246 47.2192C95.7659 47.4277 95.0682 47.8449 95.0682 48.8096C95.0682 49.644 95.6317 50.0351 96.3294 50.0351C96.4636 50.0351 96.5441 50.0351 96.6246 49.9569V50.9216C96.4904 50.9998 96.1952 50.9998 95.9806 50.9998C94.5047 50.9998 93.7266 49.983 93.7266 48.94C93.7266 47.506 94.7731 46.5934 96.6246 46.3326V47.2192ZM96.6246 43.4385V44.4032C96.6246 44.4032 96.5441 44.4032 96.4904 44.4032C95.7927 44.4032 95.0682 44.6118 94.5852 44.9507L94.2364 44.0642C94.8536 43.6471 95.7122 43.4385 96.6246 43.4385Z" fill="black"/>
<path d="M119.865 46.5413C119.865 46.3327 119.865 46.1241 119.784 45.9937C119.57 45.1594 118.872 44.4814 117.799 44.4814H117.718V43.4646C118.765 43.4646 119.489 44.0121 119.758 44.5597H119.838V40.2314H121.18V48.94C121.18 49.6179 121.18 50.3219 121.26 50.8695H120.053L119.972 49.5658H119.945C119.597 50.3219 118.818 50.9477 117.745 50.9999V49.983H117.826C118.738 49.983 119.597 49.3572 119.811 48.3925C119.892 48.1839 119.892 47.9753 119.892 47.7667V46.5413H119.865ZM117.745 44.4814C116.403 44.5597 115.625 45.7069 115.625 47.2192C115.625 48.7314 116.323 49.9048 117.745 49.9569V50.9738C117.611 50.9738 117.53 50.9738 117.45 50.9738C115.625 50.9738 114.203 49.4615 114.203 47.2713C114.203 44.8725 115.759 43.4385 117.584 43.4385C117.584 43.4385 117.665 43.4385 117.718 43.4385V44.4814H117.745Z" fill="black"/>
<path d="M141.144 46.4631C141.225 45.6288 140.795 44.3251 139.32 44.3251H139.239V43.4386C139.32 43.3604 139.373 43.3604 139.454 43.3604C141.869 43.3604 142.486 45.4984 142.486 46.8021C142.486 47.0889 142.486 47.2714 142.405 47.4278H139.239V46.4631H141.144ZM139.239 50.9999V49.9048C139.373 49.983 139.588 49.983 139.722 49.983C140.715 49.983 141.359 49.7745 141.842 49.6441L142.056 50.5306C141.574 50.7392 140.795 50.9999 139.588 50.9999C139.427 50.9999 139.293 50.9999 139.239 50.9999ZM139.239 44.3511C137.897 44.4294 137.414 45.5766 137.334 46.4892H139.239V47.4539H137.334C137.334 48.9662 138.112 49.7223 139.239 49.9309V51.026C137.2 50.8174 135.992 49.3834 135.992 47.3757C135.992 45.2377 137.253 43.5429 139.239 43.4646V44.3511Z" fill="black"/>
<path d="M157.242 43.5948H158.583V50.8694H157.242V43.5948ZM157.859 42.2912C157.376 42.2912 157 41.874 157 41.4047C157 40.9353 157.349 40.5703 157.859 40.5703C158.422 40.5703 158.717 40.9093 158.717 41.4047C158.717 41.874 158.449 42.2912 157.859 42.2912Z" fill="black"/>
<path d="M173.905 45.8374C173.905 45.0031 173.824 44.247 173.824 43.569H174.951L175.032 45.0031H175.112C175.461 44.0384 176.32 43.4126 177.152 43.4126C177.286 43.4126 177.447 43.4126 177.581 43.4126V44.6381C177.366 44.6381 177.286 44.6381 177.098 44.6381C176.105 44.6381 175.461 45.316 175.273 46.2807C175.273 46.4893 175.273 46.6979 175.273 46.9065V50.8175H173.851L173.905 45.8374Z" fill="black"/>
<path d="M195.801 47.1409C195.237 47.1409 194.674 47.1409 194.164 47.2192V46.3326C194.647 46.2544 195.157 46.2023 195.72 46.2023V46.0719C195.72 45.5244 195.586 44.4814 194.164 44.4293V43.4645H194.245C196.579 43.4645 197.062 44.9768 197.062 46.4109V49.0965C197.062 49.7744 197.143 50.3219 197.196 50.8695H195.989L195.855 49.9047H195.774C195.479 50.3741 194.915 50.7912 194.137 50.9216V49.9569C194.996 49.8787 195.479 49.3311 195.694 48.7836C195.694 48.6532 195.774 48.4968 195.774 48.3664V47.1409H195.801ZM194.191 47.2192C193.332 47.4277 192.635 47.8449 192.635 48.8096C192.635 49.644 193.198 50.0351 193.896 50.0351C193.976 50.0351 194.11 50.0351 194.191 49.9569V50.9216C193.976 50.9998 193.762 50.9998 193.547 50.9998C192.071 50.9998 191.293 49.983 191.293 48.94C191.293 47.506 192.339 46.5934 194.191 46.3326V47.2192ZM194.191 43.4385V44.4032C194.191 44.4032 194.11 44.4032 194.057 44.4032C193.359 44.4032 192.635 44.6118 192.152 44.9507L191.803 44.0642C192.42 43.6471 193.252 43.4385 194.191 43.4385Z" fill="black"/>
<path d="M212.115 49.4876C212.545 49.7744 213.242 50.0351 213.94 50.0351C214.852 50.0351 215.362 49.5658 215.362 48.94C215.362 48.3142 215.013 47.9753 214.021 47.6363C212.598 47.167 212.035 46.4109 212.035 45.5765C212.035 44.4032 212.947 43.4385 214.584 43.4385C215.362 43.4385 216.006 43.5688 216.409 43.8557L216.06 44.8204C215.765 44.6118 215.201 44.4032 214.504 44.4032C213.725 44.4032 213.296 44.8204 213.296 45.3679C213.296 45.9937 213.725 46.2544 214.718 46.5934C215.979 47.0627 216.623 47.6885 216.623 48.7836C216.623 50.0872 215.631 50.9738 213.86 50.9738C213.081 50.9738 212.303 50.7652 211.82 50.5044L212.115 49.4876Z" fill="black"/>
<path d="M68.1016 26.8298V12.2807C68.1016 10.0905 68.6651 8.36965 69.8726 7.14419C71.1337 5.84051 72.9047 5.1626 75.105 5.1626C79.4252 5.1626 81.5987 7.63959 81.5987 12.4371V15.0445H77.2785V12.0721C77.2785 10.0905 76.5003 9.12579 74.944 9.12579C73.3877 9.12579 72.6095 10.0905 72.6095 12.0721V27.8466C72.6095 29.8282 73.3877 30.7408 74.944 30.7408C76.5003 30.7408 77.2785 29.8543 77.2785 27.8466V23.4141H74.5147V19.842H81.5718V34.0522L78.5397 32.0706C77.6273 33.7914 76.1515 34.6779 74.2195 34.6779C70.1409 34.6519 68.1016 32.0445 68.1016 26.8298Z" fill="black"/>
<path d="M91.2612 23.9616H92.9517L91.4759 12.1502H91.2612V5.76221H94.2934L99.016 34.0521H94.4544L93.5421 28.003H91.2881V23.9616H91.2612ZM89.5708 23.9616H91.2612V28.003H89.0073L88.0949 34.0521H83.6406L88.4438 5.76221H91.2612V12.1502H91.1807L89.5708 23.9616Z" fill="black"/>
<path d="M100.223 26.908L104.543 26.2822C104.677 29.0982 105.67 30.4019 107.521 30.4019C108.38 30.4019 108.997 30.1933 109.507 29.7239C109.99 29.2546 110.285 28.5506 110.285 27.7424C110.285 26.3083 109.078 24.3789 106.689 22.0583L106.26 21.6411C104.435 19.8681 103.147 18.4862 102.503 17.5215C101.296 15.8789 100.679 14.158 100.679 12.4371C100.679 10.4555 101.376 8.78683 102.664 7.35278C104.006 5.97088 105.697 5.29297 107.682 5.29297C109.668 5.29297 111.278 5.97088 112.485 7.43101C113.612 8.65647 114.256 10.3252 114.391 12.385L110.017 12.9325C109.883 10.5859 109.024 9.36045 107.548 9.36045C105.992 9.36045 105.214 10.247 105.214 12.046C105.214 13.6887 106.555 15.8267 109.373 18.4862C109.453 18.5644 109.507 18.6166 109.668 18.773C111.358 20.3635 112.566 21.7193 113.21 22.7623C114.203 24.2746 114.686 25.9172 114.686 27.7163C114.686 29.7761 114.042 31.3666 112.781 32.7224C111.439 34.1043 109.802 34.704 107.682 34.704C105.348 34.704 103.577 33.9479 102.235 32.5138C101.001 31.0276 100.384 29.2285 100.223 26.908Z" fill="black"/>
<path d="M126.437 27.8727V12.0721C126.437 10.0905 125.659 9.12577 124.103 9.12577V5.1365H124.237C126.437 5.1365 128.128 5.81442 129.335 7.27454C130.462 8.57822 131.026 10.2991 131.026 12.411V26.9601C131.026 29.3067 130.462 31.0798 129.389 32.4617C128.181 33.8957 126.41 34.6518 124.103 34.6518V30.7408C125.659 30.7408 126.437 29.8543 126.437 27.8727ZM124.103 2.2684V0H126.088L129.201 4.32822H125.954L124.129 2.19018V2.2684H124.103ZM124.103 9.12577C122.546 9.12577 121.768 10.0905 121.768 12.0721V27.8466C121.768 29.8282 122.546 30.7408 124.103 30.7408V34.6518C119.514 34.6518 117.18 32.0445 117.18 26.8298V12.2807C117.18 10.0905 117.824 8.36963 119.004 7.14417C120.212 5.84049 121.902 5.21472 124.103 5.16258V9.12577ZM124.103 0V2.2684L122.332 4.32822H119.085L122.197 0H124.103Z" fill="black"/>
<path d="M135.051 34.0521V5.76221H140.981L143.879 21.4846C144.174 22.7883 144.228 24.1702 144.228 25.7346C144.228 24.5091 144.362 23.049 144.657 21.4846L147.475 5.76221H153.485V34.0521H149.326V16.1917C149.326 15.1748 149.46 13.5061 149.675 11.2377C149.675 11.3159 149.594 11.8634 149.38 12.8282C149.246 13.6625 149.085 14.4708 148.95 15.3052L145.274 34.0521H143.02L139.559 15.3052C139.425 14.3404 139.21 13.0367 138.861 11.2637C139.076 13.4018 139.156 15.0444 139.156 16.2177V34.0521H135.051Z" fill="black"/>
<path d="M158.074 34.0521V5.76221H169.8V9.88184H162.609V17.2867H167.761V21.4064H162.609V29.8542H169.8V34.0521H158.074Z" fill="black"/>
<path d="M170.738 9.88184V5.76221H184.504V9.88184H179.835V34.0521H175.38V9.88184H170.738Z" fill="black"/>
<path d="M193.251 18.0429C194.164 17.9647 194.808 17.4953 195.156 16.7392C195.371 16.1917 195.505 15.1487 195.505 13.7929C195.505 12.4892 195.371 11.5245 195.076 10.9769C194.727 10.3512 194.083 10.0122 193.251 9.88184V5.76221C195.8 5.84043 197.625 6.59656 198.698 8.03061C199.611 9.33429 200.121 11.2637 200.121 14.0015C200.121 17.365 199.208 19.6334 197.303 20.9371L200.55 34.0521H195.961L193.278 22.7883V18.0429H193.251ZM190.997 9.88184V18.1211H192.768C192.983 18.1211 193.117 18.1211 193.251 18.0429V22.7883L193.117 22.1625H190.997V34.026H186.543V5.76221H193.117H193.251V9.88184C193.037 9.88184 192.822 9.88184 192.607 9.88184H190.997Z" fill="black"/>
<path d="M212.41 27.8729V12.0723C212.41 10.0907 211.632 9.12598 210.075 9.12598V5.13672H210.209C212.41 5.13672 214.1 5.81463 215.308 7.27476C216.435 8.57844 216.998 10.2993 216.998 12.4113V26.9603C216.998 29.307 216.435 31.08 215.361 32.4619C214.154 33.8959 212.383 34.6521 210.075 34.6521V30.741C211.632 30.741 212.41 29.8545 212.41 27.8729ZM210.075 9.12598C208.519 9.12598 207.741 10.0907 207.741 12.0723V27.8468C207.741 29.8284 208.519 30.741 210.075 30.741V34.6521C205.487 34.6521 203.152 32.0447 203.152 26.83V12.2809C203.152 10.0907 203.796 8.36985 204.977 7.14439C206.185 5.84071 207.875 5.21494 210.075 5.16279V9.12598Z" fill="black"/>
</svg>
