<svg width="18" height="18" viewBox="0 0 18 18" fill="none" xmlns="http://www.w3.org/2000/svg">
<path d="M10.8951 11.5363C10.8951 11.5363 11.1152 11.3161 11.5555 10.8758C11.9958 10.4355 12.216 9.59598 12.216 8.35714C12.216 7.1183 11.7757 6.05859 10.8951 5.17801C10.0145 4.29743 8.9548 3.85714 7.71596 3.85714C6.47712 3.85714 5.41741 4.29743 4.53683 5.17801C3.65625 6.05859 3.21596 7.1183 3.21596 8.35714C3.21596 9.59598 3.65625 10.6557 4.53683 11.5363C5.41741 12.4169 6.47712 12.8571 7.71596 12.8571C8.9548 12.8571 10.0145 12.4169 10.8951 11.5363ZM17.3588 16.7143C17.3588 17.0625 17.2316 17.3638 16.9771 17.6183C16.7227 17.8728 16.4213 18 16.0731 18C15.7115 18 15.4102 17.8728 15.1691 17.6183L11.7238 14.183C10.5251 15.0134 9.18917 15.4286 7.71596 15.4286C6.75837 15.4286 5.84263 15.2427 4.96875 14.8711C4.09487 14.4994 3.34152 13.9972 2.70871 13.3644C2.07589 12.7316 1.57366 11.9782 1.20201 11.1044C0.830357 10.2305 0.644531 9.31473 0.644531 8.35714C0.644531 7.39955 0.830357 6.48382 1.20201 5.60993C1.57366 4.73605 2.07589 3.9827 2.70871 3.34989C3.34152 2.71708 4.09487 2.21484 4.96875 1.84319C5.84263 1.47154 6.75837 1.28572 7.71596 1.28572C8.67355 1.28572 9.58929 1.47154 10.4632 1.84319C11.3371 2.21484 12.0904 2.71708 12.7232 3.34989C13.356 3.9827 13.8583 4.73605 14.2299 5.60993C14.6016 6.48382 14.7874 7.39955 14.7874 8.35714C14.7874 9.83036 14.3722 11.1663 13.5419 12.365L16.9872 15.8103C17.2349 16.058 17.3588 16.3594 17.3588 16.7143Z" fill="#E84E0E"/>
</svg>
